<svg xmlns="http://www.w3.org/2000/svg" viewBox="0 0 360 360"><defs><clipPath id="circleClip"><circle cx="180" cy="180" r="180"/></clipPath></defs><g clip-path="url('#circleClip')"><path d="M0 180v180h360V0H0v180zm243.6-90.1 58.9 30.8.2 61.4c.2 33.8-.1 61.9-.5 62.5-.6.9-60.6 32.7-104.7 55.4l-14 7.2-14-7.4c-7.7-4.1-22.1-11.6-32-16.7-9.9-5.2-20.2-10.6-23-12.1-2.7-1.5-13.1-6.9-23-12s-19.8-10.3-22-11.6l-4-2.2V120.6L124 89.9c32.2-16.9 59-30.8 59.6-30.8.5-.1 27.5 13.8 60 30.8z"/><path d="M160 79.8c-12.4 6.5-37 19.4-54.7 28.6L73 125.3v115.2l38.2 20c21 11 45.8 24 55.1 28.8 12.2 6.4 17.4 8.6 18.9 8.1 2.2-.7 103.5-53.5 107.6-56l2.2-1.4V125.5l-12.2-6.4c-6.8-3.5-15.9-8.3-20.3-10.6-4.4-2.4-18.6-9.8-31.5-16.5-12.9-6.7-28.5-14.9-34.7-18.1-6.2-3.3-11.8-5.9-12.5-5.9-.7 0-11.4 5.3-23.8 11.8zm33.3-1.9c5.1 2.6 17.5 9.1 27.7 14.4 10.2 5.3 29.5 15.4 43 22.4l24.5 12.8V238.2l-52.3 27.4-52.3 27.4-33.7-17.6c-18.5-9.7-39.8-20.8-47.2-24.6-7.4-3.9-15.9-8.4-18.7-10l-5.3-2.9v-55.2l.1-55.2 52.2-27.2C160 85.3 183.6 73 183.8 73c.2 0 4.5 2.2 9.5 4.9z"/><path d="M125 184.5V222h9l.2-30.8.3-30.7 9.4 17.5c11.9 22.2 13.7 25 16 25 1.4 0 4.1-4.1 10.7-16.3 4.8-8.9 10-18.5 11.6-21.2l2.8-5V222h9v-75.1l-5.7.3-5.8.3-7.8 14c-4.2 7.7-9.3 17.1-11.3 20.9l-3.6 6.9-4.8-8.9c-2.6-4.9-7.7-14.3-11.3-20.9l-6.5-12-6.1-.3-6.1-.3v37.6zM197 184.5V222h9v-75h-9v37.5zM223.2 164.7c-8.4 9.7-15.2 18.2-15.2 19 0 .7 2.8 4.6 6.1 8.6 3.4 3.9 10.4 12.3 15.6 18.4l9.5 11.3h13.2l-4-4.3c-2.3-2.3-9.2-10.1-15.4-17.2-6.2-7.2-12.2-14-13.3-15.2l-2-2.2 5.9-6.8c3.2-3.7 10.3-11.5 15.7-17.5 5.3-5.9 9.7-11 9.7-11.3 0-.3-2.4-.5-5.3-.5h-5.4l-15.1 17.7z"/></g></svg>