<svg xmlns="http://www.w3.org/2000/svg" viewBox="0 0 360 360">
  <!-- Define a circular clipping path -->
  <defs>
    <clipPath id="circleClip">
      <circle cx="180" cy="180" r="180" />
    </clipPath>
  </defs>

  <!-- Apply the clipping path to the original SVG content -->
  <g clip-path="url(#circleClip)">
    <g transform="translate(0,360) scale(0.1,-0.1)" fill="#000000" stroke="none">
      <path d="M0 1800 l0 -1800 1800 0 1800 0 0 1800 0 1800 -1800 0 -1800 0 0
      -1800z m2436 901 l589 -308 2 -614 c2 -338 -1 -619 -5 -625 -6 -9 -606 -327
      -1047 -554 l-140 -72 -140 74 c-77 41 -221 116 -320 167 -99 52 -202 106 -230
      121 -27 15 -131 69 -230 120 -99 51 -198 103 -220 116 l-40 22 0 623 0 623
      585 307 c322 169 590 308 596 308 5 1 275 -138 600 -308z"/>
      <path d="M1600 2802 c-124 -65 -370 -194 -547 -286 l-323 -169 0 -576 0 -576
      382 -200 c210 -110 458 -240 551 -288 122 -64 174 -86 189 -81 22 7 1035 535
      1076 560 l22 14 0 573 0 572 -122 64 c-68 35 -159 83 -203 106 -44 24 -186 98
      -315 165 -129 67 -285 149 -347 181 -62 33 -118 59 -125 59 -7 0 -114 -53
      -238 -118z m333 19 c51 -26 175 -91 277 -144 102 -53 295 -154 430 -224 l245
      -128 0 -554 0 -553 -523 -274 -523 -274 -337 176 c-185 97 -398 208 -472 246
      -74 39 -159 84 -187 100 l-53 29 0 552 1 552 522 272 c287 150 523 273 525
      273 2 0 45 -22 95 -49z"/>
      <path d="M1250 1755 l0 -375 45 0 45 0 2 308 3 307 94 -175 c119 -222 137
      -250 160 -250 14 0 41 41 107 163 48 89 100 185 116 212 l28 50 0 -307 0 -308
      45 0 45 0 0 375 0 376 -57 -3 -58 -3 -78 -140 c-42 -77 -93 -171 -113 -209
      l-36 -69 -48 89 c-26 49 -77 143 -113 209 l-65 120 -61 3 -61 3 0 -376z"/>
      <path d="M1970 1755 l0 -375 45 0 45 0 0 375 0 375 -45 0 -45 0 0 -375z"/>
      <path d="M2232 1953 c-84 -97 -152 -182 -152 -190 0 -7 28 -46 61 -86 34 -39
      104 -123 156 -184 l95 -113 66 0 66 0 -40 43 c-23 23 -92 101 -154 172 -62 72
      -122 140 -133 152 l-20 22 59 68 c32 37 103 115 157 175 53 59 97 110 97 113
      0 3 -24 5 -53 5 l-54 0 -151 -177z"/>
    </g>
  </g>
</svg>